<?xml version="1.0" encoding="utf-8"?>
<svg data-name="Layer 1" width="786.81995" height="572.25773" viewBox="0 0 786.81995 572.25773" xmlns="http://www.w3.org/2000/svg">
  <defs/>
  <circle cx="458.32136" cy="74.18162" r="26.70075" style="fill: rgb(242, 242, 242);"/>
  <path d="M872.03753,661.02307c39.6877-30.22889,58.64352-81.02546,46.77635-129.48234q-.44231-1.806-.93367-3.6038c-7.86742-28.76343-27.33167-56.10058-55.7-65.29129-23.81971-7.71694-49.81962-1.78274-74.66936-4.85149-48.78136-6.02417-86.60057-45.494-113.21115-86.81933-26.61064-41.32546-47.06182-87.58331-82.42157-121.72413-58.28479-56.27536-153.36192-68.39149-225.62671-31.76044C293.98673,254.12142,247.95487,335.39062,249.918,416.38554c1.96322,80.995,50.04632,158.43176,119.87492,199.517,25.65222,15.093,55.32138,25.78522,84.84826,22.04377,25.62011-3.24641,48.89908-17.01264,74.39861-21.09959,40.09115-6.42568,79.92687,11.70084,114.60268,32.82375,34.67571,21.12288,68.17007,46.15988,107.57436,55.95242C789.47831,715.13139,836.88051,687.80109,872.03753,661.02307Z" transform="translate(-206.59003 -163.87113)" style="fill: rgb(240, 240, 240);"/>
  <path d="M815.016,219.19108c-.87006-.58-1.75-1.13-2.62006-1.69a380.24008,380.24008,0,0,0-80.31-38.93l-6.54,90.22h-41.46v-103.39c-2.61-.54-5.24-1.05-7.87-1.53v104.92H626.94587A102.26992,102.26992,0,0,1,524.67595,166.5212v-.0001c-2.64.57-5.26,1.18-7.88,1.83v100.44h-40.13l-6.23-86.03a380.8581,380.8581,0,0,0-81.94,43.53c-.44.3-.88.61-1.31.91-2.21,1.55-4.39,3.13-6.56,4.73v344.19h118.27l-2.09-28.95-11.5-158.95h231.59l-11.5,158.95-2.09,28.95h116.96v-353.45Q817.65591,220.90114,815.016,219.19108Zm-298.22,142.78h-33.39l-6.17-85.3h39.56Zm159.42,0h-56.08v-1.69a6.17975,6.17975,0,0,0-6.19-6.18h-24.38a6.17757,6.17757,0,0,0-6.18,6.18v1.69h-58.71v-85.3h151.54Zm7.87,0v-85.3h40.89l-6.17,85.3Z" transform="translate(-206.59003 -163.87113)" style="fill: rgb(84, 167, 169);"/>
  <path d="M702.01993,505.46245v85.704a4.12233,4.12233,0,0,0,4.11906,4.11907H833.14348a4.12232,4.12232,0,0,0,4.11907-4.11907v-85.704a4.12433,4.12433,0,0,0-4.11907-4.11452H706.139A4.12434,4.12434,0,0,0,702.01993,505.46245Z" transform="translate(-206.59003 -163.87113)" fill="#3f3d56"/>
  <path d="M704.99939,506.52881V590.1092a2.20523,2.20523,0,0,0,2.20141,2.20141H832.08626a2.20522,2.20522,0,0,0,2.20141-2.20141V506.52881a2.20621,2.20621,0,0,0-2.20141-2.206H707.2008A2.20623,2.20623,0,0,0,704.99939,506.52881Z" transform="translate(-206.59003 -163.87113)" style=""/>
  <path d="M699.36376,607.881a2.46985,2.46985,0,0,0,1.94346.92984H837.29917a2.5024,2.5024,0,0,0,2.44606-3.0157l-2.111-10.02722a2.50694,2.50694,0,0,0-1.55811-1.81784,2.42467,2.42467,0,0,0-.888-.1675H703.40985a2.42446,2.42446,0,0,0-.888.1675,2.50671,2.50671,0,0,0-1.55811,1.81784l-2.111,10.02722A2.5005,2.5005,0,0,0,699.36376,607.881Z" transform="translate(-206.59003 -163.87113)" fill="#2f2e41"/>
  <rect x="830.03379" y="595.58843" width="4.18849" height="2.51309" rx="0.48819" transform="translate(1457.66604 1029.81882) rotate(-180)" fill="#3f3d56"/>
  <rect x="821.65681" y="595.58843" width="4.18849" height="2.51309" rx="0.48819" transform="translate(1440.91208 1029.81882) rotate(-180)" fill="#3f3d56"/>
  <rect x="813.27982" y="595.58843" width="4.18849" height="2.51309" rx="0.48819" transform="translate(1424.15811 1029.81882) rotate(-180)" fill="#3f3d56"/>
  <rect x="804.90284" y="595.58843" width="4.18849" height="2.51309" rx="0.48819" transform="translate(1407.40415 1029.81882) rotate(-180)" fill="#3f3d56"/>
  <rect x="796.52586" y="595.58843" width="4.18849" height="2.51309" rx="0.48819" transform="translate(1390.65018 1029.81882) rotate(-180)" fill="#3f3d56"/>
  <rect x="788.14888" y="595.58843" width="4.18849" height="2.51309" rx="0.48819" transform="translate(1373.89622 1029.81882) rotate(-180)" fill="#3f3d56"/>
  <rect x="779.7719" y="595.58843" width="4.18849" height="2.51309" rx="0.48819" transform="translate(1357.14226 1029.81882) rotate(-180)" fill="#3f3d56"/>
  <rect x="771.39491" y="595.58843" width="4.18849" height="2.51309" rx="0.48819" transform="translate(1340.38829 1029.81882) rotate(-180)" fill="#3f3d56"/>
  <rect x="763.01793" y="595.58843" width="4.18849" height="2.51309" rx="0.48819" transform="translate(1323.63433 1029.81882) rotate(-180)" fill="#3f3d56"/>
  <rect x="754.64095" y="595.58843" width="4.18849" height="2.51309" rx="0.48819" transform="translate(1306.88037 1029.81882) rotate(-180)" fill="#3f3d56"/>
  <rect x="746.26397" y="595.58843" width="4.18849" height="2.51309" rx="0.48819" transform="translate(1290.1264 1029.81882) rotate(-180)" fill="#3f3d56"/>
  <rect x="737.88699" y="595.58843" width="4.18849" height="2.51309" rx="0.48819" transform="translate(1273.37244 1029.81882) rotate(-180)" fill="#3f3d56"/>
  <rect x="729.51001" y="595.58843" width="4.18849" height="2.51309" rx="0.48819" transform="translate(1256.61847 1029.81882) rotate(-180)" fill="#3f3d56"/>
  <rect x="721.13302" y="595.58843" width="4.18849" height="2.51309" rx="0.48819" transform="translate(1239.86451 1029.81882) rotate(-180)" fill="#3f3d56"/>
  <rect x="712.75604" y="595.58843" width="4.18849" height="2.51309" rx="0.48819" transform="translate(1223.11055 1029.81882) rotate(-180)" fill="#3f3d56"/>
  <rect x="704.37906" y="595.58843" width="4.18849" height="2.51309" rx="0.48819" transform="translate(1206.35658 1029.81882) rotate(-180)" fill="#3f3d56"/>
  <rect x="830.13277" y="599.77692" width="4.18849" height="2.51309" rx="0.48819" transform="translate(1457.86401 1038.1958) rotate(-180)" fill="#3f3d56"/>
  <rect x="821.75579" y="599.77692" width="4.18849" height="2.51309" rx="0.48819" transform="translate(1441.11005 1038.1958) rotate(-180)" fill="#3f3d56"/>
  <rect x="813.37881" y="599.77692" width="4.18849" height="2.51309" rx="0.48819" transform="translate(1424.35608 1038.1958) rotate(-180)" fill="#3f3d56"/>
  <rect x="805.00183" y="599.77692" width="4.18849" height="2.51309" rx="0.48819" transform="translate(1407.60212 1038.1958) rotate(-180)" fill="#3f3d56"/>
  <rect x="796.62485" y="599.77692" width="4.18849" height="2.51309" rx="0.48819" transform="translate(1390.84816 1038.1958) rotate(-180)" fill="#3f3d56"/>
  <rect x="788.24786" y="599.77692" width="4.18849" height="2.51309" rx="0.48819" transform="translate(1374.09419 1038.1958) rotate(-180)" fill="#3f3d56"/>
  <rect x="779.87088" y="599.77692" width="4.18849" height="2.51309" rx="0.48819" transform="translate(1357.34023 1038.1958) rotate(-180)" fill="#3f3d56"/>
  <rect x="771.4939" y="599.77692" width="4.18849" height="2.51309" rx="0.48819" transform="translate(1340.58627 1038.1958) rotate(-180)" fill="#3f3d56"/>
  <rect x="763.11692" y="599.77692" width="4.18849" height="2.51309" rx="0.48819" transform="translate(1323.8323 1038.1958) rotate(-180)" fill="#3f3d56"/>
  <rect x="754.73994" y="599.77692" width="4.18849" height="2.51309" rx="0.48819" transform="translate(1307.07834 1038.1958) rotate(-180)" fill="#3f3d56"/>
  <rect x="746.36295" y="599.77692" width="4.18849" height="2.51309" rx="0.48819" transform="translate(1290.32437 1038.1958) rotate(-180)" fill="#3f3d56"/>
  <rect x="737.98597" y="599.77692" width="4.18849" height="2.51309" rx="0.48819" transform="translate(1273.57041 1038.1958) rotate(-180)" fill="#3f3d56"/>
  <rect x="729.60899" y="599.77692" width="4.18849" height="2.51309" rx="0.48819" transform="translate(1256.81645 1038.1958) rotate(-180)" fill="#3f3d56"/>
  <rect x="721.23201" y="599.77692" width="4.18849" height="2.51309" rx="0.48819" transform="translate(1240.06248 1038.1958) rotate(-180)" fill="#3f3d56"/>
  <rect x="712.85503" y="599.77692" width="4.18849" height="2.51309" rx="0.48819" transform="translate(1223.30852 1038.1958) rotate(-180)" fill="#3f3d56"/>
  <rect x="704.47805" y="599.77692" width="4.18849" height="2.51309" rx="0.48819" transform="translate(1206.55456 1038.1958) rotate(-180)" fill="#3f3d56"/>
  <rect x="760.60382" y="604.80311" width="33.50793" height="2.51309" rx="0.48819" transform="translate(1348.12555 1048.24818) rotate(-180)" fill="#3f3d56"/>
  <rect x="515.63106" y="358.73707" width="5.96585" height="3.12216" rx="1.56108" fill="#fff"/>
  <rect x="548.15407" y="358.73707" width="5.96585" height="3.12216" rx="1.56108" fill="#fff"/>
  <rect x="557.36892" y="358.73707" width="5.96585" height="3.12216" rx="1.56108" fill="#fff"/>
  <rect x="524.47742" y="358.4768" width="20.79613" height="3.12216" rx="1.56108" fill="#fff"/>
  <rect x="567.84144" y="358.4768" width="20.79613" height="3.12216" rx="1.56108" fill="#fff"/>
  <rect x="524.30386" y="365.78373" width="5.96585" height="3.12216" rx="1.56108" fill="#fff"/>
  <rect x="556.82687" y="365.78373" width="5.96585" height="3.12216" rx="1.56108" fill="#fff"/>
  <rect x="566.04172" y="365.78373" width="5.96585" height="3.12216" rx="1.56108" fill="#fff"/>
  <rect x="533.15023" y="365.52345" width="20.79613" height="3.12216" rx="1.56108" fill="#fff"/>
  <rect x="576.51424" y="365.52345" width="20.79613" height="3.12216" rx="1.56108" fill="#fff"/>
  <rect x="532.97666" y="372.83038" width="5.96585" height="3.12216" rx="1.56108" fill="#fff"/>
  <rect x="565.49967" y="372.83038" width="5.96585" height="3.12216" rx="1.56108" fill="#fff"/>
  <rect x="574.71453" y="372.83038" width="5.96585" height="3.12216" rx="1.56108" fill="#fff"/>
  <rect x="541.82303" y="372.57011" width="20.79613" height="3.12216" rx="1.56108" fill="#fff"/>
  <rect x="585.18704" y="372.57011" width="20.79613" height="3.12216" rx="1.56108" fill="#fff"/>
  <rect x="541.64947" y="379.87703" width="5.96585" height="3.12216" rx="1.56108" fill="#fff"/>
  <rect x="574.17248" y="379.87703" width="5.96585" height="3.12216" rx="1.56108" fill="#fff"/>
  <rect x="583.38733" y="379.87703" width="5.96585" height="3.12216" rx="1.56108" fill="#fff"/>
  <rect x="550.49583" y="379.61676" width="20.79613" height="3.12216" rx="1.56108" fill="#fff"/>
  <rect x="548.15407" y="407.89751" width="5.96585" height="3.12216" rx="1.56108" fill="#fff"/>
  <rect x="557.36892" y="407.89751" width="5.96585" height="3.12216" rx="1.56108" fill="#fff"/>
  <rect x="567.84144" y="408.15779" width="20.79613" height="3.12216" rx="1.56108" fill="#fff"/>
  <rect x="515.63106" y="407.89751" width="5.96585" height="3.12216" rx="1.56108" fill="#fff"/>
  <rect x="524.47742" y="408.15779" width="20.79613" height="3.12216" rx="1.56108" fill="#fff"/>
  <rect x="524.30386" y="400.85086" width="5.96585" height="3.12216" rx="1.56108" fill="#fff"/>
  <rect x="556.82687" y="400.85086" width="5.96585" height="3.12216" rx="1.56108" fill="#fff"/>
  <rect x="566.04172" y="400.85086" width="5.96585" height="3.12216" rx="1.56108" fill="#fff"/>
  <rect x="533.15023" y="401.11113" width="20.79613" height="3.12216" rx="1.56108" fill="#fff"/>
  <rect x="532.97666" y="393.80421" width="5.96585" height="3.12216" rx="1.56108" fill="#fff"/>
  <rect x="565.49967" y="393.80421" width="5.96585" height="3.12216" rx="1.56108" fill="#fff"/>
  <rect x="574.71453" y="393.80421" width="5.96585" height="3.12216" rx="1.56108" fill="#fff"/>
  <rect x="541.82303" y="394.06448" width="20.79613" height="3.12216" rx="1.56108" fill="#fff"/>
  <rect x="541.64947" y="386.75755" width="5.96585" height="3.12216" rx="1.56108" fill="#fff"/>
  <rect x="574.17248" y="386.75755" width="5.96585" height="3.12216" rx="1.56108" fill="#fff"/>
  <rect x="583.38733" y="386.75755" width="5.96585" height="3.12216" rx="1.56108" fill="#fff"/>
  <rect x="550.49583" y="387.01783" width="20.79613" height="3.12216" rx="1.56108" fill="#fff"/>
  <path d="M398.28,501.35193v102.56h71.85v-102.56a3.448,3.448,0,0,0-2.43-3.3,3.1749,3.1749,0,0,0-1.03-.16H401.75A3.46328,3.46328,0,0,0,398.28,501.35193Zm28.04,35.24a7.67033,7.67033,0,0,1,15.34,0v11.9a7.6701,7.6701,0,0,1-15.34,0Z" transform="translate(-206.59003 -163.87113)" style=""/>
  <path d="M398.06006,600.632v9.89a1.94622,1.94622,0,0,0,1.93,1.94h68.43a1.93972,1.93972,0,0,0,1.93-1.94v-9.89Z" transform="translate(-206.59003 -163.87113)" fill="#3f3d56"/>
  <path d="M285.25,346.832V534.09192a9.00714,9.00714,0,0,0,9,9h277.5a9.0071,9.0071,0,0,0,9-9V346.832a9.01147,9.01147,0,0,0-9-8.99H294.25A9.01151,9.01151,0,0,0,285.25,346.832Z" transform="translate(-206.59003 -163.87113)" fill="#3f3d56"/>
  <path d="M291.76,349.16193v182.62a4.81833,4.81833,0,0,0,4.81,4.81H569.44a4.81829,4.81829,0,0,0,4.81-4.81v-182.62a4.82047,4.82047,0,0,0-4.81-4.82H296.57A4.82051,4.82051,0,0,0,291.76,349.16193Z" transform="translate(-206.59003 -163.87113)" style=""/>
  <path d="M342.4,611.79193a2.9484,2.9484,0,0,0,2.32,1.11h162.34a2.98725,2.98725,0,0,0,2.92-3.6l-2.52-11.97a2.99264,2.99264,0,0,0-1.86-2.17,2.89454,2.89454,0,0,0-1.06-.19995H347.23a2.8943,2.8943,0,0,0-1.06.19995,2.99239,2.99239,0,0,0-1.86,2.17l-2.52,11.97A2.985,2.985,0,0,0,342.4,611.79193Z" transform="translate(-206.59003 -163.87113)" style="fill: rgb(8, 8, 9);"/>
  <path d="M560.58451,369.49866H305.26115a1.0156,1.0156,0,0,1,0-2.0307H560.58451a1.0156,1.0156,0,0,1,0,2.0307Z" transform="translate(-206.59003 -163.87113)" fill="#3f3d56"/>
  <ellipse cx="116.05131" cy="192.32963" rx="5.95043" ry="6.08304" fill="#3f3d56"/>
  <ellipse cx="136.60733" cy="192.32963" rx="5.95043" ry="6.08304" fill="#3f3d56"/>
  <ellipse cx="157.16336" cy="192.32963" rx="5.95043" ry="6.08304" fill="#3f3d56"/>
  <path d="M548.20637,351.622h-14.6a1.1053,1.1053,0,0,0,0,2.21h14.6a1.10511,1.10511,0,0,0,0-2.21Z" transform="translate(-206.59003 -163.87113)" fill="#3f3d56"/>
  <path d="M548.20637,355.772h-14.6a1.10527,1.10527,0,0,0,0,2.21h14.6a1.10508,1.10508,0,0,0,0-2.21Z" transform="translate(-206.59003 -163.87113)" fill="#3f3d56"/>
  <path d="M548.20637,359.92194h-14.6a1.1053,1.1053,0,0,0,0,2.21h14.6a1.10511,1.10511,0,0,0,0-2.21Z" transform="translate(-206.59003 -163.87113)" fill="#3f3d56"/>
  <path d="M900.18575,604.97238a6.41621,6.41621,0,0,0,6.1831,4.331l26.49183-.68178a6.3285,6.3285,0,0,0,5.98085-4.657l3.74888-40.08721a9.79409,9.79409,0,0,0,4.23793.87079,9.66133,9.66133,0,1,0-.4849-19.31658,8.18393,8.18393,0,0,0-1.73618.18056,6.54764,6.54764,0,0,0-4.87405-2.103l-40.75051,1.05229a5.85294,5.85294,0,0,0-1.00519.1248,6.36455,6.36455,0,0,0-4.87318,8.26464Zm43.17345-43.81684,2.66764-9.55274a6.50649,6.50649,0,0,0,.02036-3.37458c.12944-.00034.24363-.06169.37307-.062a6.91049,6.91049,0,0,1,.32357,13.81714A6.50527,6.50527,0,0,1,943.3592,561.15554Z" transform="translate(-206.59003 -163.87113)" style="fill: rgb(9, 9, 9);"/>
  <path d="M897.97751,544.68623c.86818,4.96412,10.62909,8.45387,22.36585,7.84729,10.79271-.49726,19.61745-4.287,21.23421-8.7785a6.02511,6.02511,0,0,0-1.84436-.24588l-40.75051,1.05229A5.85294,5.85294,0,0,0,897.97751,544.68623Z" transform="translate(-206.59003 -163.87113)" fill="#3f3d56"/>
  <path d="M922.49438,582.94415a.49659.49659,0,0,0,.15091-.06642l5.75315-3.76566a.49923.49923,0,0,0,.00032-.83621l-5.97978-3.91667a.49972.49972,0,1,0-.54792.83585l5.34091,3.49818-5.114,3.34794a.49991.49991,0,0,0,.39637.903Z" transform="translate(-206.59003 -163.87113)" fill="#6c63ff"/>
  <path d="M913.40762,583.36319a.5.5,0,0,0,.12608-.91842l-5.30306-3.04034,5.1256-3.80723a.49963.49963,0,1,0-.596-.80208l-5.73862,4.26265a.49951.49951,0,0,0,.04918.83476l5.96525,3.41968A.4997.4997,0,0,0,913.40762,583.36319Z" transform="translate(-206.59003 -163.87113)" fill="#6c63ff"/>
  <path d="M921.92215,586.24416a.48233.48233,0,0,0,.137-.05785.49976.49976,0,0,0,.16752-.68714l-8.15548-13.40836a.50026.50026,0,0,0-.85442.52058l8.15548,13.40835A.50035.50035,0,0,0,921.92215,586.24416Z" transform="translate(-206.59003 -163.87113)" style="fill: rgb(116, 194, 220);"/>
  <rect x="209.38454" y="260.82713" width="50.71916" height="10.8457" rx="3.26417" style="fill: rgb(116, 194, 220);"/>
  <rect x="183.62601" y="282.51852" width="102.23622" height="10.8457" rx="3.26417" fill="#e6e6e6"/>
  <rect x="183.62601" y="304.20991" width="102.23622" height="10.8457" rx="3.26417" fill="#e6e6e6"/>
  <path d="M497.30123,540.717l.21675.68444.01142.02283,6.52515,19.838,7.50627,22.86094,14.1227,42.96133.13688,6.67346v.02283l1.04949,53.6845-2.90894,7.2781,3.274,11.93237s-1.50582-18.037-9.5824-7.67884c-4.57448,5.8864-9.92468,11.90961-14.31668,17.55642q9.59964,3.88436,19.50716,7.0271c1.426.45633,2.86334.88983,4.30071,1.32333q.46194.13692.924.27377a266.86342,266.86342,0,0,0,67.35086,10.82587c1.18637.03425,2.35.057,3.47932.07986.39932.01142.78714.02284,1.175.02284,1.27765.01142,2.54389.02277,3.82154.02277q3.86721,0,7.70018-.11405a266.85337,266.85337,0,0,0,56.09149-7.58613c-.12547-7.58606-.46768-16.44984-.9582-25.91819-.22817-4.64293-5.3502-9.67369-5.65823-14.53336-.21675-3.65047,4.38057-7.08419,4.141-10.79169-1.55143-22.82675-3.49075-14.06417-4.92813-30.22882q-.22245-2.37852-.41066-4.55165c-.924-10.381-1.56284-16.872-1.56284-16.872l6.13733-38.68338,9.6395-60.73442-.74153-1.22063-.83274-.41066-50.844-25.16532-2.76064-7.07276a10.97881,10.97881,0,0,0-10.14143-6.94731l-33.4929-.13688a10.93117,10.93117,0,0,0-8.90946,4.52888l-9.069,12.55978Z" transform="translate(-206.59003 -163.87113)" style="fill: rgb(127, 182, 183);"/>
  <path d="M533.40653,617.52479,525.8204,633.758l-5.179,11.08822-8.90939,46.646-4.46044,4.73414L503.45,679.467l-39.99772,8.88094c-1.31191-7.28951-.3512.24662-1.16117-7.75009.22817-.22817.46768-.45634.70727-.68451.63882-.59322,1.175-1.15218,1.1636-1.68831-.45633-27.58374.9126-74.52633,12.34311-102.96564a60.05328,60.05328,0,0,1,7.02709-13.1074c.22817-.308.44492-.61606.66167-.924,5.27034-7.3808,8.60136-14.64748,13.32415-19.81511v-.01142a.53028.53028,0,0,0,.07986-.07987.157.157,0,0,0,.04561-.03425l32.44341-17.20272,1.39177,39.10546.99247,28.10851Z" transform="translate(-206.59003 -163.87113)" style="fill: rgb(127, 182, 183);"/>
  <path d="M 672.512 524.483 L 673.343 524.899 L 674.081 526.114 L 686.173 545.912 C 686.188 545.912 686.188 545.927 686.203 545.943 C 691.172 551.327 694.587 559.034 700.279 566.772 C 716.575 588.943 719.694 639.937 719.721 673.397 C 720.578 673.894 721.322 674.457 721.904 675.09 C 724.218 677.607 725.429 682.089 725.676 686.593 C 728.289 689.977 728.812 696.326 727.853 700.273 C 727.288 702.598 725.862 705.054 724.079 707.032 C 724.078 707.033 724.078 707.034 724.077 707.035 L 724.077 707.034 C 722.938 708.297 721.653 709.365 720.354 710.08 C 719.237 710.694 717.853 711.124 716.374 711.393 C 715.739 712.045 715.082 712.639 714.405 713.162 C 708.721 717.553 698.135 720.028 691.331 718.931 C 684.983 717.907 677.668 712.515 674.603 707.971 C 672.312 704.575 671.701 699.88 672.052 695.957 L 663.175 649.471 L 659.867 642.41 L 650.391 622.135 Z M 472.693 662.246 C 477.537 661.825 488.563 666.625 493.459 666.861 C 496.601 667.013 497.845 665.079 500.381 665.708 C 503.654 666.519 509.168 670.165 511.341 673.207 C 513.244 675.868 514.085 679.167 513.649 682.436 C 513.145 686.216 510.887 691.934 507.303 694.55 C 503.335 697.447 496.466 698.35 489.998 698.011 C 482.329 697.61 468.741 695.366 464.04 690.512 C 460.075 686.418 459.805 677.553 460.579 673.207 C 461.173 669.868 463.661 667.553 465.77 665.708 C 467.746 663.98 469.46 662.528 472.693 662.246 Z" transform="translate(-206.59003 -163.87113)" style="fill: rgb(127, 182, 183);"/>
  <circle id="a657ec4b-47ce-4d2a-9c58-81a811696ca9" data-name="Ellipse 5" cx="391.953" cy="271.225" r="44.558" style="fill: rgb(235, 205, 158);"/>
  <path d="M 443.513 240.588 C 442.815 239.842 441.844 239.413 440.823 239.398 L 441.493 237.538 C 442.443 234.994 440.282 232.376 437.604 232.825 C 437.58 232.829 437.557 232.833 437.533 232.838 L 435.093 233.308 L 435.323 231.678 C 435.709 229.021 433.109 226.921 430.593 227.858 C 429.534 228.275 428.343 228.19 427.353 227.628 C 426.36 227.083 425.657 226.128 425.433 225.018 L 424.583 220.918 L 424.493 220.698 C 420.353 213.798 412.393 208.778 402.653 206.938 C 393.983 205.288 385.093 206.128 376.523 206.918 C 373.123 207.238 369.283 207.598 366.083 209.558 C 363.363 211.238 361.063 214.598 361.533 217.988 C 353.083 215.398 344.023 220.568 339.533 227.088 C 334.213 234.848 333.343 244.568 333.203 252.168 C 332.823 270.148 336.533 284.858 344.203 295.898 C 344.763 296.698 344.903 298.368 346.013 298.928 L 345.783 298.558 C 347.023 299.178 348.283 300.178 347.813 301.248 C 346.463 304.328 355.433 311.138 361.753 313.388 C 373.283 317.498 388.613 317.148 399.393 315.668 L 399.773 313.118 C 403.663 312.588 406.403 311.578 407.173 309.998 C 408.533 308.838 409.693 307.798 410.703 306.838 L 410.713 306.828 C 410.733 306.808 410.773 306.778 410.793 306.758 C 415.663 302.088 416.793 299.428 417.303 295.378 C 417.793 291.408 416.923 287.378 416.033 283.748 C 434.773 286.648 408.653 263.788 426.113 259.368 C 426.313 259.306 426.517 259.256 426.723 259.218 C 427.233 259.098 427.743 258.978 428.233 258.838 C 430.595 258.197 432.857 257.231 434.953 255.968 C 439.833 252.998 441.443 249.058 443.963 244.618 C 444.709 243.32 444.527 241.689 443.513 240.588 Z" style="fill: rgb(60, 60, 63);"/>
</svg>